<svg width="546" height="482" xmlns="http://www.w3.org/2000/svg" xmlns:xlink="http://www.w3.org/1999/xlink"><defs><linearGradient x1="47.831%" y1="-28.186%" x2="50%" y2="91.05%" id="u"><stop stop-color="#FDC6C6" offset="0%"/><stop stop-color="#FFCCA1" offset="100%"/></linearGradient><linearGradient x1="50%" y1="81.177%" x2="50%" y2="-34.513%" id="e"><stop stop-color="#FF8C19" offset="0%"/><stop stop-color="#FFC967" offset="100%"/></linearGradient><linearGradient x1="62.11%" y1="31.381%" x2="62.11%" y2="-27.478%" id="f"><stop stop-color="#F8FDFF" offset="0%"/><stop stop-color="#AAD4FF" offset="100%"/></linearGradient><linearGradient x1="44.055%" y1="-28.186%" x2="50%" y2="91.05%" id="t"><stop stop-color="#FDC6C6" offset="0%"/><stop stop-color="#FFCCA1" offset="100%"/></linearGradient><linearGradient x1="44.539%" y1="-28.186%" x2="50%" y2="91.05%" id="s"><stop stop-color="#FDC6C6" offset="0%"/><stop stop-color="#FAB2B2" offset="100%"/></linearGradient><linearGradient x1="45.73%" y1="-28.186%" x2="50%" y2="91.05%" id="r"><stop stop-color="#FDC6C6" offset="0%"/><stop stop-color="#FAB2B2" offset="100%"/></linearGradient><linearGradient x1="47.237%" y1="-28.186%" x2="50%" y2="91.05%" id="q"><stop stop-color="#FDC6C6" offset="0%"/><stop stop-color="#FFCCA1" offset="100%"/></linearGradient><path d="M6 0h50.3a6 6 0 0 1 6 6v39.698a6 6 0 0 1-6 6H6a6 6 0 0 1-6-6V6a6 6 0 0 1 6-6z" id="k"/><path d="M10.04 0h89.391c5.507 0 9.978 4.453 10 9.96l.47 117.86c.022 5.523-4.437 10.018-9.96 10.04a10 10 0 0 1-.04 0H10.51c-5.507 0-9.978-4.453-10-9.96L.04 10.04C.018 4.517 4.477.022 10 0a10 10 0 0 1 .04 0z" id="n"/><path d="M18.522 0h21.29a3 3 0 0 1 3 2.912l.06 2.076a5.138 5.138 0 0 0 5.136 4.989h74.89c2.78 0 5.055-2.21 5.136-4.989l.06-2.076a3 3 0 0 1 3-2.912h21.29c10.23 0 18.522 8.293 18.522 18.522v325.16c0 10.23-8.293 18.522-18.522 18.522H18.522C8.292 362.204 0 353.912 0 343.682V18.522C0 8.292 8.293 0 18.522 0z" id="c"/><path d="M19.69 3.57v14.276c0 1.516-1.163 2.676-2.685 2.676H12.53c-.537 0-.895-.357-.895-.892s.358-.892.895-.892h4.475c.537 0 .895-.357.895-.892V3.569c0-.535-.358-.892-.895-.892H12.53c-.537 0-.895-.357-.895-.892 0-.536.358-.893.895-.893h4.475c1.522 0 2.685 1.16 2.685 2.677zm-5.46 7.494c.09-.178.09-.446 0-.714-.089-.089-.089-.178-.178-.267l-3.58-3.57a.867.867 0 0 0-1.253 0 .86.86 0 0 0 0 1.25l2.058 2.052H2.685c-.537 0-.895.357-.895.892 0 .536.358.893.895.893h8.592L9.22 13.652a.86.86 0 0 0 0 1.249.968.968 0 0 0 .626.268c.18 0 .448-.09.627-.268l3.58-3.57c.09-.088.179-.178.179-.267z" id="g"/><path d="M19.84 10.41h-1.045V7.287c0-3.435-2.819-6.246-6.265-6.246-3.446 0-6.265 2.81-6.265 6.246v3.123H5.221c-1.775 0-3.133 1.353-3.133 3.123v7.287c0 1.77 1.358 3.123 3.133 3.123h14.618c1.776 0 3.133-1.354 3.133-3.123v-7.287c0-1.77-1.357-3.123-3.133-3.123zM8.352 7.287c0-2.29 1.88-4.164 4.177-4.164 2.297 0 4.177 1.874 4.177 4.164v3.123H8.353V7.287zm12.53 13.533c0 .624-.417 1.04-1.044 1.04H5.221c-.627 0-1.044-.416-1.044-1.04v-7.287c0-.625.417-1.041 1.044-1.041h14.618c.627 0 1.045.416 1.045 1.04v7.288z" id="i"/><filter x="-91.1%" y="-87.6%" width="320%" height="317.4%" filterUnits="objectBoundingBox" id="o"><feOffset dx="8" dy="9" in="SourceAlpha" result="shadowOffsetOuter1"/><feGaussianBlur stdDeviation="14" in="shadowOffsetOuter1" result="shadowBlurOuter1"/><feColorMatrix values="0 0 0 0 0.0755212756 0 0 0 0 0.582569014 0 0 0 0 0.878793025 0 0 0 0.229458042 0" in="shadowBlurOuter1" result="shadowMatrixOuter1"/><feOffset dy="2" in="SourceAlpha" result="shadowOffsetOuter2"/><feGaussianBlur stdDeviation="7.5" in="shadowOffsetOuter2" result="shadowBlurOuter2"/><feColorMatrix values="0 0 0 0 0.50398247 0 0 0 0 0.700178215 0 0 0 0 1 0 0 0 0.233828671 0" in="shadowBlurOuter2" result="shadowMatrixOuter2"/><feMerge><feMergeNode in="shadowMatrixOuter1"/><feMergeNode in="shadowMatrixOuter2"/></feMerge></filter><filter x="-35%" y="-27.2%" width="184.5%" height="167.5%" filterUnits="objectBoundingBox" id="m"><feOffset dx="8" dy="9" in="SourceAlpha" result="shadowOffsetOuter1"/><feGaussianBlur stdDeviation="14" in="shadowOffsetOuter1" result="shadowBlurOuter1"/><feColorMatrix values="0 0 0 0 0.0755212756 0 0 0 0 0.582569014 0 0 0 0 0.878793025 0 0 0 0.229458042 0" in="shadowBlurOuter1" result="shadowMatrixOuter1"/><feOffset dy="2" in="SourceAlpha" result="shadowOffsetOuter2"/><feGaussianBlur stdDeviation="7.5" in="shadowOffsetOuter2" result="shadowBlurOuter2"/><feColorMatrix values="0 0 0 0 0.50398247 0 0 0 0 0.700178215 0 0 0 0 1 0 0 0 0.233828671 0" in="shadowBlurOuter2" result="shadowMatrixOuter2"/><feMerge><feMergeNode in="shadowMatrixOuter1"/><feMergeNode in="shadowMatrixOuter2"/></feMerge></filter><filter x="-15.4%" y="-15.5%" width="130.8%" height="131%" filterUnits="objectBoundingBox" id="b"><feGaussianBlur stdDeviation="3" in="SourceGraphic"/></filter><filter x="-7.2%" y="-7.3%" width="114.5%" height="114.5%" filterUnits="objectBoundingBox" id="a"><feGaussianBlur stdDeviation="2" in="SourceGraphic"/></filter><ellipse id="p" cx="21.141" cy="21.394" rx="21.141" ry="21.394"/></defs><g fill="none" fillRule="evenodd"><g transform="translate(6)"><path d="M393.598 0C474.454 0 540 65.26 540 145.76c0 80.501-65.546 145.76-146.402 145.76-80.856 0-146.402-65.259-146.402-145.76C247.196 65.26 312.742 0 393.598 0zm0 54.49c-50.63 0-91.672 40.863-91.672 91.27s41.043 91.27 91.672 91.27c50.63 0 91.672-40.863 91.672-91.27s-41.043-91.27-91.672-91.27z" fill="#7367F0" fillRule="nonzero" opacity=".053"/><path d="M41.503 189.806c22.922 0 41.504 18.5 41.504 41.322 0 22.82-18.582 41.321-41.504 41.321-22.921 0-41.503-18.5-41.503-41.321 0-22.822 18.582-41.322 41.503-41.322zm0 27.245c-7.808 0-14.138 6.302-14.138 14.077 0 7.774 6.33 14.076 14.138 14.076 7.809 0 14.139-6.302 14.139-14.076 0-7.775-6.33-14.077-14.139-14.077z" fill="#8BF78F" fillRule="nonzero" opacity=".141" filter="url(#a)"/><ellipse fill-opacity=".061" fill="#7367F0" cx="169.662" cy="363.265" rx="82.095" ry="81.735"/><ellipse fill="#CEF5FF" opacity=".141" cx="142.297" cy="77.194" rx="29.189" ry="29.061"/><ellipse fill-opacity=".136" fill="#7367F0" filter="url(#b)" cx="486.182" cy="363.265" rx="29.189" ry="29.061"/></g><path d="M200.024 100h134.57c13.883 0 25.138 11.254 25.138 25.137v329.504c0 13.882-11.255 25.137-25.137 25.137H200.024c-13.883 0-25.137-11.255-25.137-25.137V125.137c0-13.883 11.254-25.137 25.137-25.137z" fill="#C4E3E7"/><g transform="translate(181.553 107.653)"><mask id="d" fill="#fff"><use xlink:href="#c"/></mask><use fill="#FFF" xlink:href="#c"/><ellipse fill="#7367F0" opacity=".099" mask="url(#d)" cx="64.795" cy="220.451" rx="14.659" ry="14.512"/><path d="M152.519 205.94c39.087 0 70.774 31.369 70.774 70.064 0 38.695-31.687 70.064-70.774 70.064-39.088 0-70.775-31.369-70.775-70.064 0-38.695 31.687-70.064 70.775-70.064zm0 30.61c-22.01 0-39.854 17.664-39.854 39.454s17.843 39.453 39.854 39.453c22.01 0 39.853-17.664 39.853-39.453 0-21.79-17.843-39.454-39.853-39.454z" fill="#C8F5D0" opacity=".141" mask="url(#d)"/><path d="M25.58 62.184h121.032a4.762 4.762 0 1 1 0 9.523H25.58a4.762 4.762 0 0 1 0-9.523z" fill-opacity=".642" fill="#68DE9E" mask="url(#d)"/></g><path d="M277.328 106.649c1.582 0 2.863 1.218 2.863 2.72 0 1.47-1.225 2.667-2.758 2.72l-.105.002h-32.374c-1.58 0-2.863-1.219-2.863-2.721 0-1.47 1.226-2.667 2.758-2.72l.105-.001h32.374zM288.93 106.195c1.582 0 2.864 1.27 2.864 2.835 0 1.53-1.226 2.777-2.758 2.832l-.105.002h-.15c-1.582 0-2.863-1.27-2.863-2.834 0-1.531 1.225-2.778 2.758-2.833l.105-.002h.15z" fill="#56CDD9" fillRule="nonzero"/><path d="M4 .64h5.445a3.652 3.652 0 0 1 3.652 3.652v2.433c0 .673.546 1.22 1.22 1.22h41.167a4 4 0 0 1 4 4v34.458a4 4 0 0 1-4 4H4a4 4 0 0 1-4-4V4.64a4 4 0 0 1 4-4z" fill="url(#e)" transform="translate(186.797 227.884)"/><path d="M15.3 4.096h45.23a1.22 1.22 0 0 1 1.204 1.413l-6.79 42.141a1.22 1.22 0 0 1-1.204 1.026H8.51a1.22 1.22 0 0 1-1.203-1.414l6.79-42.14A1.22 1.22 0 0 1 15.3 4.095z" fill="url(#f)" transform="translate(186.797 227.884)"/><path d="m253.242 248.072-4.777 24.318a8 8 0 0 1-7.85 6.458H191.66a4 4 0 0 1-3.925-4.77l4.776-24.319a8 8 0 0 1 7.85-6.458h48.957a4 4 0 0 1 3.925 4.77z" fill="#FFCC7B"/><path d="M125 181.628h27.316l10.66 10.884v34.813a6 6 0 0 1-6 6H125a6 6 0 0 1-6-6v-39.697a6 6 0 0 1 6-6z" fill="#B7B1FB"/><g transform="translate(127.95 198.15)"><mask id="h" fill="#fff"><use xlink:href="#g"/></mask><use fill="#000" fillRule="nonzero" xlink:href="#g"/><g mask="url(#h)" fill="#FFF"><path d="M0 0h21.48v21.415H0z"/></g></g><path d="M162.976 192.512h-7.66a3 3 0 0 1-3-3v-7.884l10.66 10.884z" fill="#7367F0" fillRule="nonzero" opacity=".34"/><g><path d="M144.24 315.86h50.3a6 6 0 0 1 6 6v39.698a6 6 0 0 1-6 6h-50.3a6 6 0 0 1-6-6V321.86a6 6 0 0 1 6-6z" fill="#6FD9E6"/><g transform="translate(156.14 329.244)"><mask id="j" fill="#fff"><use xlink:href="#i"/></mask><use fill="#000" fillRule="nonzero" xlink:href="#i"/><g mask="url(#j)" fill="#FFF"><path d="M0 0h25.06v24.984H0z"/></g></g></g><g transform="translate(192.294 150.79)"><mask id="l" fill="#fff"><use xlink:href="#k"/></mask><use fill="#BAF3C4" fillRule="nonzero" xlink:href="#k"/><ellipse fill="#FFF" mask="url(#l)" cx="27.485" cy="19.046" rx="8.246" ry="8.163"/><ellipse fill="#28C76F" mask="url(#l)" cx="8.704" cy="61.221" rx="29.776" ry="29.477"/><ellipse fill="#69E09E" mask="url(#l)" cx="62.758" cy="54.419" rx="35.273" ry="34.465"/></g><g><g transform="translate(274.75 129.93)"><use fill="#000" filter="url(#m)" xlink:href="#n"/><use fill="#FFF" xlink:href="#n"/></g><path d="M312.285 215.186h34.87a2.72 2.72 0 0 1 0 5.442h-34.87a2.72 2.72 0 1 1 0-5.442zM303.123 229.698h53.194a2.72 2.72 0 0 1 0 5.441h-53.194a2.72 2.72 0 1 1 0-5.441z" fill="#7367F0" fillRule="nonzero" opacity=".34"/><g transform="translate(308.648 152.605)"><use fill="#000" filter="url(#o)" xlink:href="#p"/><use fill="#FFF" xlink:href="#p"/></g><path d="M334.439 174.804a4.461 4.461 0 0 1 4.461 4.462v3.15c0 .724-.587 1.311-1.312 1.311h-14.802a1.312 1.312 0 0 1-1.312-1.311v-3.15a4.461 4.461 0 0 1 4.462-4.462h8.503zm-4.252-12.223c2.987 0 5.408 2.397 5.408 5.354 0 2.957-2.42 5.354-5.408 5.354-2.986 0-5.408-2.397-5.408-5.354 0-2.957 2.422-5.354 5.408-5.354z" fill="#7367F0"/></g><g><path d="M13.59 69.931S3.858 80.464 4.534 81.413c.677.955 5.72-1.595 5.72-1.595s-5.908 10.848-4.543 11.59c1.363.742 8.05-1.234 10.017-3.508 1.967-2.273 4.622-13.383 4.622-13.383L34.47 44.885l-11.48-3.302-9.4 28.348z" fill="url(#q)" transform="rotate(2.866 -4076.845 8587.479)"/><path d="M423.959 231.742c4.302 6.618 18.785 25.479 18.785 25.479l-1.055 3.762 13.31 9.033c2.52-6.893 3.89-10.825 4.109-11.795 1.082-4.799-20.785-35.423-25.68-39.848-7.71-6.968-16.045 3.255-9.47 13.369z" fill="#FD8715"/><path d="M446.206 262.227c.165-.32-.982-2.01-3.44-5.074l-.625 2.235c2.544 2.212 3.9 3.159 4.065 2.84z" fill-opacity=".16" fill="#000"/><path fill="#FFEDC2" d="m441.606 259.72 14.14 10.69-3.15 6.914-12.364-13.614z"/><path fill="url(#r)" d="m35.472 179.674-.786 13.248 10.068.26-1.892-13.508z" transform="translate(397.209 274.603)"/><path d="M442.44 459.496s-.282 7.978 1.386 10.764c1.68 2.785 2.189 4.944 2.263 6.61.08 1.786-.091 3.403-.091 3.403h-16.664s-.417-8.393.686-9.976c1.104-1.582 1.828-1.61 1.828-3.008.009-1.399.247-7.74.247-7.74l10.345-.053z" fill="#391B0B"/><path d="m397.209 277.414 26.118-2.81.384.352c1.861 1.756 9.95 9.91 12.275 21.056 4.388 21.042-1.485 59.906-1.355 68.428.124 8.521 4.192 13.663 5.882 25.713 1.69 12.049 1.85 65.899 1.85 65.899-4.481 2.63-8.425 2.818-13.77-.158l-31.384-178.48z" fill="#4E3319"/><path d="m420.539 410.085-23.33-132.671 14.521-1.563c.647 46.09 9.678 108.39 8.809 134.234z" fill-opacity=".192" fill="#FFF"/><g><path d="m27.631 174.63-8.585.138c.376 5.882-.536 9.82-2.737 11.811l-.18.157c-3.986 3.307 11.39 2.113 11.39 2.113l.112-14.218z" fill="url(#s)" transform="translate(374.927 278.254)"/><path d="m403.014 459.762-.247 20.504-6.114.005-.053-5.053s-1.928 4.71-4.875 4.983c-2.956.272-16.128.105-16.128.105s-1.094-4.73 5.462-6.878c5.454-1.785 11.484-13.666 11.484-13.666h10.47z" fill="#391B0B"/><path d="m384.253 279.238 29.328-.984.22.402c1.422 2.672 9.22 18.316 6.812 36.099-3.38 24.96-11.97 54.222-12.391 58.692-.75 7.97.75 13.74 1.364 21.972.615 8.232-2.345 60.003-2.345 60.003-4.352 2.592-9.53 3.1-16.115.078-3.962-46.88-5.958-74.03-5.987-81.45-.044-11.129-.886-94.812-.886-94.812z" fill="#604021"/><path d="m390.288 306.235-.195 1.85c-1.954 19.5-1.94 60.914-1.183 67.3l.104.824c.84 7.207.867 25.504.082 54.892l-1.022-12.681c-1.936-24.402-2.915-39.191-2.935-44.37l-.036-5.359c-.168-21.67-.85-89.453-.85-89.453l6.185-.207c.661 10.7.611 19.768-.15 27.204z" fill-opacity=".192" fill="#FFF"/></g><g transform="translate(392.816 166.543)"><path d="M2.62 20.265c-3.608.39-3.352 6.671 1.04 7 .898 6.054 4.1 8.938 8.004 9.272l-.216 9.158 17.268-.01s-4.863-6.47-4.62-15.326c.242-8.857-.163-17.177-.163-17.177l-22.366.397 1.054 6.686z" fill="url(#t)"/><path d="M1.835 20.735c4.203-1.645 7.308 5.44 10.524 10.363 3.216 4.924 11.548 4.088 12.696 0 4.348-8.952 8.094-21.122 3.021-22.121C27.362-3.962-6.846-.907 1.836 20.735z" fill="#8B5030"/><path d="M25.564 4.08c1.465 1.232 2.4 2.868 2.512 4.897 5.073.999 1.327 13.17-3.02 22.121-1.069 3.801-8.349 4.79-11.95.951-3.284-9.74-1.88-20.63 4.76-27.968z" fill-opacity=".199" fill="#000"/><ellipse fill="#FB9934" cx="20.734" cy="4.081" rx="4.123" ry="4.081"/></g><g><path d="M390.906 214.012c-3.853 5.602-10.273 24.617-10.638 28.895-.41 4.934 4.934 12.794 5.022 19.937.078 7.144-3.986 28.655-2.765 30.664 1.211 2.01 35.944 10.905 38.21 10.858 2.257-.049 16.504-12.157 14.717-16.341-1.798-4.184-10.14-14.582-9.29-20.283.84-5.7 5.718-26.743 8.141-33.904 2.413-7.162 1.608-14.68-2.895-17.762-2.228-1.525-8.174-5.857-18.763-5.838-10.589.02-21.44 3.34-21.74 3.774z" fill="#FD8715"/><path d="M402.862 209.829c-.297 1.606.204 2.41 1.505 2.41 1.95 0 15.035.426 16.807-.336 1.182-.508 1.595-1.2 1.24-2.074h-19.552z" fill="#FFF6E1"/><path d="m385.314 226.129.119-.06c7.134-3.525 11.42-3.68 12.857-.467 1.856 4.156-2.959 14.14-14.447 29.953-1.578-4.796-3.847-9.369-3.575-12.648.211-2.476 2.45-9.887 5.046-16.778z" fill-opacity=".16" fill="#000"/></g><g><path d="M8.001 27.046s-1.285-2.762-3.306-3.51c-2.02-.747-5.11-5.697-4.631-7.134.477-1.437 4.656-5.424 4.656-5.424S1.026 1.163 2.662.055C4.108-.924 9.58 11.44 9.58 11.44s3.216.48 3.958 1.744c1.871 3.187.457 10.354.457 10.354l18.988 27.468-8.712 11.06L8 27.045z" fill="url(#u)" transform="translate(329.72 187.404)"/><path d="M386.193 216.58c-6.422 5.647-22.13 20.63-22.13 20.63l-2.333-3.54-11.747 11.909c5.908 8.674 9.823 13.042 11.747 13.102 7.518.237 20.99-13.816 33.654-24.788 11.356-9.839 2.78-27.841-9.191-17.313z" fill="#FD8715"/><path d="M364.11 237.228c-2.937 3.364-4.527 4.862-4.77 4.495-.242-.366.866-2.594 3.324-6.683l1.447 2.188z" fill-opacity=".16" fill="#000"/><path fill="#FFEDC2" d="m363.136 234.473-13.624 14.995-4.197-8.557 15.23-9.461z"/></g><path d="M412.827 167.376s3.858-4.975 8.313-3.67c4.455 1.306 8.484 9.306 6.571 16.826-1.904 7.522-.334 11.811 1.976 16.88 6.204 13.635-15.276 22.292-15.276 22.292 1.117-6.735.59-12.137-1.584-16.204-3.357-6.283-5.264-14.34-5.264-19.27 0-8.575 5.264-16.854 5.264-16.854z" fill="#8B5030"/></g><g transform="translate(364.535 106.349)"><path d="M0 6.445c15.521-8.854 31.255-8.33 47.165 0L46.16 17.51a48.4 48.4 0 0 1-22.579 36.689A47.107 47.107 0 0 1 .62 16.575L0 6.445z" fill="#28C76F"/><ellipse fill="#1CA258" cx="23.582" cy="24.407" rx="12.863" ry="12.734"/><g fill="#FFF"><path d="M23.399 15.36c4.09 0 7.632 2.73 8.66 6.58a.563.563 0 0 1-1.088.285c-.898-3.363-3.995-5.75-7.572-5.75-4.324 0-7.83 3.457-7.83 7.721 0 2.407.798 4.57 2.402 6.511a.553.553 0 0 1-.079.784.567.567 0 0 1-.792-.078c-1.767-2.138-2.656-4.55-2.656-7.217 0-4.88 4.01-8.836 8.955-8.836z"/><path d="M21.409 18.494c3.184-1.086 6.623.485 7.798 3.558l.064.176c.604 1.736 1.425 2.521 2.476 2.508a.56.56 0 0 1 .57.55.56.56 0 0 1-.556.564c-1.566.02-2.73-1.042-3.478-3.048l-.076-.211c-.905-2.602-3.77-3.95-6.432-3.044-2.396.817-3.677 3.704-3.114 6.25.11.495.248.94.427 1.369l.16.37c.535 1.17 1.23 2.046 4.367 5.779a.553.553 0 0 1-.073.784.567.567 0 0 1-.793-.072l-1.682-2.012c-2.02-2.439-2.476-3.134-2.984-4.34l-.036-.085a9.131 9.131 0 0 1-.486-1.555c-.676-3.058.862-6.523 3.848-7.541z"/><path d="M22.709 21.502c1.65-.563 3.474.315 3.987 1.958.74 2.366 2.1 3.836 4.11 4.467.296.093.46.406.366.7a.564.564 0 0 1-.707.362c-2.377-.747-4-2.5-4.844-5.2-.323-1.033-1.489-1.594-2.546-1.234-1.125.384-1.682 1.458-1.375 2.93.156.747.773 1.765 1.823 3.092l.18.224c.147.183.302.371.47.572l1.808 2.118a.553.553 0 0 1-.075.784.567.567 0 0 1-.792-.074l-1.447-1.69-.362-.428c-.171-.205-.33-.398-.482-.586l-.364-.46c-1.047-1.349-1.67-2.412-1.861-3.327-.418-2 .43-3.635 2.111-4.208z"/><path d="M23.71 24.536a.564.564 0 0 1 .703.37c.607 1.96 1.795 3.35 4.029 5.012a.553.553 0 0 1 .112.78.567.567 0 0 1-.788.11c-2.407-1.789-3.74-3.35-4.429-5.576a.556.556 0 0 1 .373-.696z"/></g></g></g></svg>