<svg width="164" height="49" viewBox="0 0 164 49" fill="none" xmlns="http://www.w3.org/2000/svg">
<path d="M57.7508 34.3134C56.5775 33.645 55.6432 32.6381 55.0756 31.43C54.4591 30.1712 54.1514 28.66 54.1523 26.8964V10.1891C54.1523 8.4106 54.4601 6.89198 55.0756 5.63325C55.6416 4.42738 56.5717 3.42087 57.7403 2.74976C58.9003 2.08816 60.3033 1.75685 61.9492 1.75586C63.5951 1.75487 65.0026 2.08616 66.1718 2.74976C67.3433 3.41736 68.2744 4.42491 68.8365 5.63325C69.444 6.89198 69.7476 8.40317 69.7476 10.1668C69.7476 10.537 69.5982 10.8921 69.3319 11.1547C69.0656 11.4173 68.7041 11.566 68.3264 11.5684H66.7488C66.5611 11.5684 66.3749 11.5321 66.2015 11.4617C66.0279 11.3912 65.8703 11.288 65.7373 11.1578C65.6046 11.0277 65.4992 10.8732 65.4274 10.7031C65.3555 10.5331 65.3185 10.3508 65.3185 10.1668C65.3379 9.38895 65.2049 8.61466 64.9267 7.88589C64.7031 7.29858 64.3001 6.79308 63.7728 6.43818C63.23 6.09731 62.5952 5.92418 61.9508 5.94124C61.3095 5.92313 60.6777 6.09643 60.1393 6.43818C59.6165 6.79782 59.2149 7.30177 58.9853 7.88589C58.6975 8.62118 58.5603 9.40481 58.5814 10.1921V26.8964C58.5615 27.6763 58.6987 28.4524 58.9853 29.1803C59.2149 29.7643 59.6165 30.2683 60.1393 30.628C60.677 30.9701 61.3085 31.1435 61.9492 31.1249C62.5938 31.1426 63.2289 30.9693 63.7712 30.628C64.2985 30.2731 64.7015 29.7676 64.9252 29.1803C65.2038 28.4505 65.3367 27.6752 65.317 26.8964C65.317 26.5246 65.4677 26.1681 65.736 25.9053C66.0042 25.6425 66.3679 25.4947 66.7474 25.4947H68.3264C68.7057 25.4947 69.0695 25.6425 69.3378 25.9053C69.606 26.1681 69.7568 26.5246 69.7568 26.8964C69.7568 28.6609 69.453 30.1722 68.8457 31.43C68.2836 32.6383 67.3525 33.6457 66.181 34.3134C65.0067 34.9761 63.5962 35.3074 61.9492 35.3074C60.3023 35.3074 58.9028 34.9761 57.7508 34.3134Z" fill="#FAFAFA"/>
<path d="M74.9926 34.5009C73.9732 33.985 73.1428 33.1712 72.6163 32.1724C72.0696 31.1567 71.7969 29.9323 71.7979 28.4989V17.7862C71.7979 16.3698 72.0706 15.1601 72.6163 14.1573C73.1446 13.1702 73.9757 12.3703 74.9926 11.8705C76.0312 11.3497 77.2731 11.0898 78.7186 11.0908C80.164 11.0918 81.3985 11.3517 82.4219 11.8705C83.4253 12.3711 84.2412 13.17 84.7526 14.1529C85.2831 15.1557 85.5482 16.3653 85.5482 17.7818V28.5674C85.5482 29.9839 85.2831 31.197 84.7526 32.2067C84.2437 33.1986 83.428 34.0079 82.4219 34.5188C81.3985 35.0466 80.164 35.3104 78.7186 35.3104C77.2731 35.3104 76.0312 35.0406 74.9926 34.5009ZM80.5074 30.4094C80.9465 29.9351 81.1657 29.2608 81.1647 28.3859V17.9707C81.1647 17.1266 80.9455 16.467 80.5074 15.9919C80.069 15.5167 79.4576 15.2797 78.673 15.2807C77.9039 15.2807 77.2964 15.5177 76.851 15.9919C76.4056 16.466 76.1829 17.1256 76.1829 17.9707V28.3932C76.1829 29.2533 76.4015 29.9229 76.8404 30.4063C77.2792 30.8898 77.8896 31.1294 78.6746 31.1294C79.4596 31.1294 80.0684 30.8839 80.5074 30.4094Z" fill="#FAFAFA"/>
<path d="M101.045 12.7291C100.134 11.6301 98.8207 11.0806 97.1059 11.0806C95.9073 11.0645 94.7393 11.4521 93.7973 12.1786C93.0501 12.7743 92.4475 13.5255 92.033 14.3777V13.6679C92.033 13.091 91.7991 12.5377 91.3829 12.1298C90.9666 11.7219 90.402 11.4927 89.8133 11.4927C89.5216 11.4925 89.2328 11.5486 88.9632 11.6579C88.6937 11.7671 88.4487 11.9273 88.2425 12.1293C88.0362 12.3313 87.8726 12.5712 87.7609 12.8352C87.6493 13.0992 87.5918 13.3822 87.5918 13.6679V33.0921C87.593 33.6684 87.8276 34.2208 88.244 34.6279C88.6607 35.0348 89.225 35.2633 89.8133 35.263C90.402 35.263 90.9666 35.0337 91.3829 34.6258C91.7991 34.2179 92.033 33.6646 92.033 33.0877V18.9082C92.033 17.6425 92.2785 16.6958 92.7695 16.0679C93.2604 15.44 94.0044 15.1271 95.0015 15.129C95.9996 15.129 96.7436 15.4306 97.2335 16.0337C97.7233 16.6367 97.9689 17.5493 97.9699 18.7714V33.0877C97.9699 33.3734 98.0273 33.6564 98.139 33.9204C98.2506 34.1843 98.4143 34.4244 98.6205 34.6264C98.8268 34.8282 99.0718 34.9884 99.3412 35.0978C99.6108 35.2069 99.8996 35.2632 100.191 35.263C100.483 35.2632 100.772 35.2069 101.041 35.0978C101.31 34.9884 101.555 34.8282 101.761 34.6262C101.968 34.4242 102.131 34.1843 102.243 33.9204C102.354 33.6564 102.411 33.3734 102.411 33.0877V17.4933C102.411 15.4162 101.956 13.8281 101.045 12.7291Z" fill="#FAFAFA"/>
<path d="M114.469 4.16652V14.1888C114.033 13.3929 113.445 12.6859 112.738 12.1058C111.901 11.4079 110.838 11.0235 109.739 11.0212C108.722 10.9965 107.724 11.2944 106.894 11.8707C106.098 12.4361 105.491 13.2653 105.072 14.3584C104.653 15.4515 104.445 16.7589 104.449 18.2805V28.2968C104.449 29.7747 104.657 31.0369 105.072 32.0835C105.487 33.1299 106.094 33.9289 106.894 34.4803C107.686 35.031 108.636 35.3061 109.744 35.3061C110.873 35.3253 111.971 34.9437 112.835 34.2319C113.548 33.6337 114.109 32.8812 114.474 32.0344V32.7515C114.474 33.0335 114.53 33.3129 114.641 33.5734C114.751 33.834 114.912 34.0707 115.116 34.2703C115.319 34.4696 115.561 34.6277 115.827 34.7355C116.093 34.8433 116.378 34.8986 116.666 34.8984C116.954 34.8984 117.239 34.8429 117.505 34.7351C117.77 34.6271 118.012 34.469 118.215 34.2697C118.419 34.0703 118.58 33.8336 118.69 33.573C118.8 33.3127 118.857 33.0334 118.857 32.7515V4.16652C118.857 3.59711 118.626 3.05101 118.215 2.64837C117.804 2.24574 117.247 2.01954 116.666 2.01954C116.378 2.01875 116.092 2.0737 115.826 2.18125C115.559 2.28879 115.317 2.44682 115.113 2.64626C114.909 2.84571 114.747 3.08265 114.637 3.34354C114.526 3.6044 114.469 3.88407 114.469 4.16652ZM114.135 29.7578C113.942 30.2282 113.608 30.6302 113.177 30.911C112.721 31.1858 112.193 31.3233 111.659 31.3068C110.783 31.3068 110.095 31.0281 109.594 30.4705C109.092 29.9132 108.841 29.13 108.839 28.1213V18.5304C108.839 17.4294 109.089 16.5699 109.589 15.9519C110.089 15.334 110.777 15.025 111.654 15.025C112.19 15.0086 112.719 15.1506 113.172 15.4327C113.607 15.7261 113.94 16.1409 114.131 16.623C114.366 17.221 114.479 17.8584 114.464 18.4992V27.9279C114.483 28.5535 114.371 29.1763 114.135 29.7578Z" fill="#FAFAFA"/>
<path d="M134.601 14.1796C134.056 13.1847 133.206 12.382 132.172 11.8838C131.111 11.3571 129.837 11.0938 128.349 11.0938C126.134 11.0938 124.419 11.6775 123.204 12.845C122.56 13.4684 122.077 14.2335 121.795 15.0768C121.688 15.3878 121.658 15.7194 121.708 16.0441C121.758 16.3687 121.886 16.6771 122.081 16.9437C122.276 17.2103 122.534 17.4276 122.832 17.5774C123.13 17.7273 123.46 17.8055 123.795 17.8055H123.87C124.312 17.801 124.742 17.6626 125.1 17.4093C125.459 17.156 125.729 16.8002 125.874 16.3906C125.975 16.103 126.129 15.8362 126.329 15.6035C126.782 15.0837 127.416 14.8238 128.232 14.8238C129.155 14.8238 129.874 15.0837 130.389 15.6035C130.905 16.1233 131.162 16.8583 131.162 17.8085V20.8601H128.303C125.827 20.8601 123.974 21.5118 122.743 22.8151C121.512 24.1186 120.896 26.0895 120.896 28.7279C120.896 30.9281 121.389 32.5746 122.374 33.6676C123.359 34.7608 124.835 35.3063 126.803 35.3044C127.865 35.3044 128.753 35.1125 129.468 34.7286C130.19 34.3364 130.758 33.7196 131.083 32.9758C131.112 32.9134 131.138 32.8478 131.164 32.7839V32.8822C131.166 33.4355 131.392 33.9656 131.792 34.356C132.192 34.7464 132.734 34.9655 133.299 34.9652C133.579 34.9671 133.857 34.9147 134.117 34.8109C134.376 34.7071 134.613 34.554 134.811 34.3602C135.01 34.1666 135.168 33.9364 135.276 33.6828C135.384 33.429 135.439 33.1569 135.439 32.8822V17.8085C135.439 16.3911 135.16 15.1814 134.601 14.1796ZM130.35 30.5715C129.812 31.1666 128.997 31.4642 127.904 31.4642C126.966 31.4642 126.262 31.238 125.793 30.7858C125.325 30.3334 125.09 29.6475 125.09 28.7279C125.09 27.3868 125.359 26.3806 125.896 25.7091C126.434 25.0376 127.244 24.7024 128.326 24.7034H131.164V27.8918C131.164 29.0821 130.894 29.9754 130.356 30.5715H130.35Z" fill="#FAFAFA"/>
<path d="M156.117 13.342L152.995 27.279C152.993 27.2849 152.989 27.2901 152.984 27.2938C152.979 27.2974 152.972 27.2993 152.966 27.2993C152.96 27.2993 152.954 27.2974 152.948 27.2938C152.943 27.2901 152.939 27.2849 152.937 27.279L149.155 12.3675C149.106 12.1767 148.994 12.0074 148.836 11.8863C148.678 11.7653 148.483 11.6995 148.282 11.6994H141.888C141.884 11.6994 141.881 11.6987 141.877 11.6973C141.874 11.6959 141.87 11.6938 141.868 11.6911C141.865 11.6885 141.863 11.6854 141.861 11.682C141.86 11.6786 141.859 11.6749 141.859 11.6712V7.07513C141.865 6.54041 141.671 6.02211 141.313 5.61845C140.955 5.21478 140.458 4.9538 139.917 4.885C139.61 4.8506 139.299 4.88019 139.005 4.9718C138.71 5.06341 138.439 5.215 138.208 5.4166C137.978 5.61818 137.793 5.86525 137.667 6.1416C137.541 6.41793 137.476 6.7173 137.476 7.02009V29.0629C137.476 31.128 137.931 32.6809 138.842 33.7213C139.753 34.762 141.176 35.2817 143.11 35.2807H143.618C144.083 35.2807 144.529 35.0996 144.858 34.7773C145.186 34.455 145.371 34.0179 145.371 33.5623V32.9551C145.374 32.4969 145.192 32.056 144.864 31.7291C144.536 31.4022 144.09 31.2161 143.622 31.2113C143.051 31.2113 142.615 31.0229 142.315 30.6459C141.836 30.0507 141.859 29.1402 141.859 29.0629C141.888 28.1092 141.859 22.9477 141.859 15.8387C141.86 15.8313 141.863 15.8243 141.868 15.8191C141.873 15.8139 141.881 15.8108 141.888 15.8104H145.74C145.746 15.8105 145.752 15.8126 145.757 15.8164C145.762 15.8201 145.766 15.8254 145.767 15.8312C146.882 19.8053 148.068 23.7615 149.217 27.7253L150.362 31.6696C150.552 32.3273 150.743 32.985 150.935 33.6425C151.094 34.1931 151.337 34.696 151.211 35.2792C151.13 35.6541 151.035 36.0232 150.951 36.404L150.553 38.176C150.351 39.0956 149.951 39.7775 149.354 40.222C148.926 40.5255 148.43 40.7248 147.908 40.8037C147.434 40.9042 147.007 41.1573 146.697 41.5226C146.386 41.8879 146.208 42.3443 146.193 42.8197C146.192 43.1117 146.255 43.4005 146.378 43.6666C146.501 43.9327 146.681 44.17 146.905 44.3626C147.128 44.5552 147.392 44.6987 147.677 44.7834C147.962 44.8682 148.263 44.8919 148.558 44.8536C149.119 44.7855 149.672 44.6629 150.209 44.4875C151.081 44.2141 151.866 43.723 152.486 43.0622C153.092 42.375 153.516 41.5523 153.721 40.6667L160.271 14.2839C160.334 14.0166 160.343 13.7397 160.297 13.4691C160.251 13.1985 160.151 12.9394 160.003 12.7067C159.854 12.474 159.661 12.2721 159.433 12.1127C159.205 11.9533 158.947 11.8394 158.674 11.7775C158.402 11.7157 158.119 11.7071 157.843 11.7523C157.567 11.7974 157.302 11.8954 157.065 12.0407C156.828 12.186 156.621 12.3757 156.459 12.599C156.296 12.8223 156.18 13.0748 156.117 13.342Z" fill="#FAFAFA"/>
<path d="M96.0189 42.0574C96.1863 41.9757 96.3711 41.9344 96.558 41.9369C96.7809 41.9354 97 41.9941 97.1913 42.1065C97.3815 42.218 97.5358 42.3799 97.6361 42.5737C97.7483 42.7874 97.8046 43.0251 97.8001 43.2655C97.8042 43.5078 97.7479 43.7473 97.6361 43.9633C97.535 44.1607 97.3799 44.3265 97.1881 44.4424C97.0118 44.5446 96.8127 44.603 96.608 44.6122C96.4035 44.6216 96.1996 44.5817 96.0144 44.4961C95.8672 44.4264 95.7384 44.3246 95.6379 44.1983V44.5734H95.0928V41.0918H95.6379V42.3638C95.7378 42.233 95.8686 42.1278 96.0189 42.0574ZM97.1305 42.8012C97.0599 42.6761 96.9545 42.5729 96.8268 42.5037C96.7056 42.4375 96.5691 42.4031 96.4305 42.4041C96.2934 42.4041 96.1589 42.4394 96.0403 42.5067C95.913 42.5766 95.808 42.6796 95.7366 42.8043C95.6627 42.949 95.6244 43.1084 95.6244 43.2699C95.6244 43.4317 95.6627 43.5911 95.7366 43.7358C95.7865 43.8263 95.8543 43.9063 95.9364 43.9706C96.0185 44.0349 96.113 44.0824 96.2141 44.1103C96.3153 44.1379 96.4211 44.1456 96.5253 44.1323C96.6295 44.1191 96.73 44.0853 96.8208 44.0333C96.949 43.9602 97.0542 43.8536 97.1244 43.7252C97.2022 43.5806 97.2409 43.4186 97.2368 43.2552C97.2423 43.0965 97.2055 42.939 97.1305 42.7984V42.8012Z" fill="#FAFAFA"/>
<path d="M100.717 41.9805L99.0982 45.7836H98.532L99.0695 44.5249L98.0293 41.9805H98.6368L99.3791 43.952L100.15 41.9805H100.717Z" fill="#FAFAFA"/>
<path d="M104.445 41.29V41.8213H103.051V42.6605H104.114V43.1827H103.051V44.5664H102.38V41.2931L104.445 41.29Z" fill="#FAFAFA"/>
<path d="M105.609 44.3834C105.351 44.2437 105.136 44.0381 104.987 43.7883C104.835 43.5246 104.756 43.2271 104.756 42.9245C104.756 42.622 104.835 42.3246 104.987 42.0608C105.136 41.8114 105.351 41.6059 105.609 41.4656C105.874 41.3242 106.171 41.25 106.473 41.25C106.775 41.25 107.072 41.3242 107.337 41.4656C107.594 41.6061 107.808 41.8118 107.955 42.0608C108.104 42.3254 108.183 42.6225 108.183 42.9245C108.183 43.2267 108.104 43.5239 107.955 43.7883C107.808 44.0386 107.593 44.2445 107.334 44.3834C107.07 44.5259 106.773 44.6006 106.472 44.6006C106.17 44.6006 105.873 44.5259 105.609 44.3834ZM107.003 43.879C107.158 43.7884 107.283 43.6555 107.363 43.4966C107.448 43.3159 107.492 43.1193 107.492 42.9201C107.492 42.721 107.448 42.5243 107.363 42.3436C107.283 42.1863 107.158 42.055 107.003 41.9656C106.841 41.8758 106.658 41.8306 106.472 41.8348C106.285 41.8309 106.1 41.8762 105.937 41.9656C105.782 42.0545 105.656 42.1859 105.576 42.3436C105.491 42.5243 105.447 42.721 105.447 42.9201C105.447 43.1193 105.491 43.3159 105.576 43.4966C105.656 43.6559 105.781 43.7888 105.937 43.879C106.1 43.9701 106.284 44.0164 106.472 44.0129C106.658 44.0168 106.842 43.9705 107.003 43.879Z" fill="#FAFAFA"/>
<path d="M109.204 44.4869C109.028 44.4161 108.875 44.2987 108.762 44.1477C108.651 43.9962 108.592 43.8137 108.594 43.627H109.313C109.315 43.6876 109.33 43.7473 109.356 43.8022C109.382 43.8572 109.419 43.9066 109.465 43.9468C109.566 44.0293 109.695 44.0714 109.827 44.0645C109.959 44.0719 110.09 44.0322 110.196 43.9528C110.239 43.9181 110.274 43.8739 110.297 43.8239C110.32 43.7738 110.331 43.7191 110.329 43.6642C110.331 43.6207 110.324 43.5771 110.308 43.5363C110.292 43.4954 110.269 43.458 110.238 43.4261C110.175 43.3605 110.097 43.3097 110.011 43.2773C109.885 43.227 109.757 43.1838 109.626 43.148C109.445 43.0983 109.268 43.0361 109.096 42.9619C108.959 42.8991 108.839 42.804 108.747 42.6852C108.641 42.5417 108.587 42.3669 108.595 42.1896C108.592 42.0095 108.645 41.8326 108.747 41.6824C108.853 41.5375 109.001 41.4264 109.171 41.3625C109.363 41.2829 109.57 41.2434 109.778 41.2465C110.079 41.233 110.376 41.3201 110.619 41.4934C110.726 41.5755 110.814 41.6795 110.875 41.7982C110.937 41.917 110.971 42.0477 110.976 42.1808H110.238C110.235 42.1263 110.219 42.073 110.193 42.0248C110.167 41.9765 110.131 41.9343 110.086 41.9011C109.983 41.8238 109.855 41.7848 109.725 41.791C109.612 41.7858 109.501 41.8211 109.412 41.8907C109.372 41.9264 109.34 41.9707 109.319 42.0202C109.299 42.0697 109.29 42.1231 109.294 42.1764C109.293 42.2169 109.3 42.2572 109.315 42.2948C109.331 42.3324 109.354 42.3665 109.383 42.3951C109.446 42.4559 109.521 42.5035 109.603 42.535C109.724 42.5835 109.848 42.6251 109.974 42.6599C110.156 42.7099 110.334 42.7725 110.507 42.8473C110.646 42.9124 110.768 43.0092 110.861 43.1301C110.967 43.2727 111.02 43.4463 111.013 43.6226C111.013 43.7947 110.965 43.9637 110.873 44.1105C110.775 44.2661 110.634 44.391 110.466 44.4706C110.268 44.564 110.05 44.6099 109.83 44.6045C109.615 44.6064 109.403 44.5665 109.204 44.4869Z" fill="#FAFAFA"/>
<path d="M115.058 41.3037V41.7411H114.171V44.5679H113.626V41.7411H112.733V41.3037H115.058Z" fill="#FAFAFA"/>
<path d="M118.01 43.4724H115.992C116 43.6623 116.085 43.8415 116.227 43.9708C116.369 44.0961 116.554 44.1632 116.745 44.1583C116.874 44.1667 117.002 44.1366 117.114 44.0721C117.225 44.0075 117.313 43.9115 117.368 43.7966H117.957C117.879 44.0316 117.728 44.2363 117.524 44.3814C117.297 44.5385 117.023 44.6185 116.745 44.6091C116.508 44.6122 116.274 44.5546 116.066 44.4424C115.868 44.3319 115.705 44.169 115.597 43.9722C115.48 43.7567 115.422 43.5155 115.427 43.2715C115.421 43.0275 115.478 42.7859 115.593 42.5691C115.698 42.3723 115.859 42.21 116.057 42.1019C116.268 41.9893 116.505 41.9323 116.745 41.9368C116.978 41.9329 117.208 41.9882 117.412 42.0975C117.604 42.2004 117.762 42.3554 117.867 42.5438C117.98 42.7479 118.036 42.977 118.031 43.209C118.031 43.2972 118.024 43.3853 118.01 43.4724ZM117.459 43.0409C117.461 42.9509 117.443 42.8619 117.405 42.7798C117.368 42.6977 117.313 42.6248 117.243 42.5662C117.097 42.4454 116.912 42.3819 116.721 42.3876C116.542 42.3844 116.369 42.4477 116.236 42.5647C116.099 42.6883 116.014 42.8582 115.998 43.0409H117.459Z" fill="#FAFAFA"/>
<path d="M118.548 42.5699C118.651 42.3746 118.81 42.2124 119.004 42.1027C119.232 41.9851 119.487 41.9285 119.744 41.9387C120.001 41.9488 120.251 42.0254 120.468 42.1606C120.682 42.317 120.832 42.5426 120.893 42.7974H120.302C120.259 42.6771 120.179 42.5731 120.073 42.4998C119.955 42.4243 119.816 42.3865 119.675 42.3913C119.574 42.3872 119.473 42.4062 119.38 42.4467C119.287 42.4872 119.205 42.5482 119.141 42.6249C119.012 42.8185 118.943 43.0447 118.943 43.2759C118.943 43.5071 119.012 43.7333 119.141 43.9267C119.205 44.0036 119.287 44.0648 119.38 44.1055C119.472 44.1464 119.574 44.1655 119.675 44.1619C119.811 44.1728 119.947 44.1383 120.061 44.064C120.175 43.9898 120.26 43.8801 120.302 43.7527H120.893C120.825 44.0034 120.673 44.2244 120.462 44.3806C120.233 44.5406 119.956 44.6223 119.675 44.6128C119.44 44.6164 119.209 44.5588 119.004 44.446C118.81 44.3346 118.652 44.1717 118.548 43.9758C118.44 43.7575 118.383 43.5174 118.383 43.2744C118.383 43.0311 118.44 42.7913 118.548 42.5727V42.5699Z" fill="#FAFAFA"/>
<path d="M123.345 42.0634C123.505 42.1499 123.635 42.2807 123.718 42.4398C123.813 42.6242 123.86 42.8285 123.855 43.0349V44.56H123.313V43.1138C123.326 42.9208 123.263 42.7301 123.137 42.5812C123.074 42.5184 122.999 42.4697 122.915 42.4379C122.832 42.4062 122.742 42.392 122.653 42.3966C122.563 42.392 122.473 42.4062 122.389 42.438C122.305 42.4697 122.229 42.5184 122.165 42.5812C122.037 42.7289 121.973 42.9202 121.986 43.1138V44.56H121.439V41.0918H121.986V42.2821C122.081 42.1704 122.202 42.0831 122.338 42.0277C122.486 41.967 122.645 41.9365 122.806 41.9383C122.993 41.9352 123.179 41.9782 123.345 42.0634Z" fill="#FAFAFA"/>
<path d="M126.439 42.063C126.604 42.1471 126.739 42.2785 126.825 42.4395C126.921 42.6234 126.97 42.828 126.965 43.0346V44.5597H126.423V43.1134C126.437 42.9201 126.373 42.729 126.245 42.5809C126.182 42.5183 126.107 42.4694 126.024 42.4375C125.941 42.4057 125.851 42.3917 125.762 42.3963C125.672 42.3919 125.582 42.4059 125.498 42.4377C125.414 42.4696 125.338 42.5183 125.275 42.5809C125.146 42.7288 125.082 42.9199 125.095 43.1134V44.5597H124.549V41.9798H125.095V42.2773C125.188 42.1691 125.306 42.0839 125.439 42.0289C125.578 41.969 125.73 41.9385 125.882 41.9397C126.075 41.936 126.266 41.9784 126.439 42.063Z" fill="#FAFAFA"/>
<path d="M128.129 44.4423C127.929 44.3323 127.764 44.1694 127.654 43.972C127.537 43.7568 127.478 43.5154 127.483 43.2714C127.478 43.0266 127.539 42.785 127.659 42.5705C127.775 42.3737 127.946 42.2129 128.151 42.1062C128.362 41.9986 128.596 41.9424 128.834 41.9424C129.072 41.9424 129.306 41.9986 129.517 42.1062C129.72 42.2148 129.887 42.3773 130 42.5749C130.121 42.7892 130.183 43.031 130.178 43.2758C130.182 43.5206 130.119 43.7621 129.996 43.9751C129.878 44.1739 129.707 44.3369 129.501 44.4467C129.288 44.5581 129.05 44.6155 128.808 44.6134C128.571 44.6151 128.337 44.556 128.129 44.4423ZM129.192 44.0449C129.321 43.9764 129.426 43.8732 129.496 43.7474C129.577 43.6012 129.617 43.4362 129.612 43.2698C129.617 43.1039 129.579 42.9393 129.501 42.7921C129.435 42.6674 129.334 42.564 129.209 42.4945C129.089 42.4293 128.953 42.3955 128.816 42.3965C128.679 42.3954 128.545 42.4293 128.426 42.4945C128.302 42.5638 128.203 42.6674 128.14 42.7921C128.066 42.9406 128.03 43.1046 128.035 43.2698C128.02 43.5039 128.098 43.7349 128.252 43.9141C128.322 43.9885 128.407 44.0472 128.502 44.0866C128.597 44.1259 128.699 44.1447 128.802 44.1416C128.941 44.1418 129.078 44.1069 129.2 44.0405L129.192 44.0449Z" fill="#FAFAFA"/>
<path d="M131.262 41.0918V44.5659H130.717V41.0918H131.262Z" fill="#FAFAFA"/>
<path d="M132.451 44.4428C132.251 44.333 132.087 44.17 131.977 43.9725C131.858 43.7577 131.799 43.5161 131.804 43.2719C131.799 43.0271 131.861 42.7853 131.982 42.571C132.095 42.3738 132.262 42.2115 132.465 42.1023C132.676 41.9947 132.91 41.9385 133.148 41.9385C133.386 41.9385 133.62 41.9947 133.831 42.1023C134.034 42.2109 134.202 42.3734 134.315 42.571C134.437 42.7853 134.498 43.0271 134.493 43.2719C134.497 43.5167 134.434 43.758 134.311 43.9712C134.193 44.1703 134.021 44.3336 133.814 44.4428C133.601 44.5542 133.363 44.6116 133.122 44.6095C132.887 44.6112 132.656 44.5539 132.451 44.4428ZM133.514 44.0454C133.642 43.9769 133.748 43.8737 133.817 43.7479C133.899 43.6017 133.938 43.4367 133.933 43.2703C133.938 43.1046 133.901 42.9403 133.824 42.7928C133.756 42.6683 133.655 42.5653 133.53 42.4952C133.41 42.4298 133.275 42.3961 133.137 42.397C133.001 42.3961 132.866 42.4298 132.747 42.4952C132.624 42.5649 132.525 42.6683 132.462 42.7928C132.387 42.9411 132.351 43.1052 132.357 43.2703C132.341 43.5048 132.42 43.7358 132.576 43.9146C132.645 43.989 132.73 44.0477 132.824 44.0871C132.919 44.1264 133.021 44.1452 133.124 44.1421C133.263 44.1425 133.4 44.1076 133.521 44.041L133.514 44.0454Z" fill="#FAFAFA"/>
<path d="M136.654 42.0579C136.799 42.1271 136.926 42.229 137.024 42.3554V41.9804H137.565V44.6095C137.57 44.8309 137.518 45.0499 137.413 45.2463C137.312 45.4316 137.158 45.5842 136.97 45.6853C136.757 45.7958 136.518 45.8507 136.277 45.8443C135.961 45.8562 135.649 45.7699 135.386 45.5974C135.273 45.5224 135.179 45.4242 135.109 45.3094C135.04 45.1949 134.997 45.0665 134.984 44.9338H135.526C135.569 45.0717 135.664 45.1884 135.791 45.2611C135.938 45.3461 136.107 45.3889 136.277 45.3846C136.375 45.3891 136.473 45.3739 136.565 45.3401C136.657 45.3064 136.741 45.2548 136.812 45.1882C136.883 45.1114 136.939 45.0209 136.974 44.9225C137.009 44.8238 137.023 44.7195 137.015 44.6155V44.184C136.915 44.3126 136.787 44.4173 136.64 44.4904C136.474 44.5754 136.289 44.6184 136.101 44.6155C135.879 44.6172 135.661 44.5579 135.471 44.4444C135.277 44.3289 135.119 44.1631 135.015 43.9653C134.902 43.7496 134.845 43.5098 134.85 43.2675C134.845 43.0273 134.902 42.79 135.015 42.577C135.119 42.384 135.274 42.2227 135.465 42.1108C135.656 41.999 135.874 41.9408 136.097 41.9433C136.289 41.9356 136.481 41.9752 136.654 42.0579ZM136.912 42.8017C136.843 42.6781 136.741 42.5751 136.617 42.5041C136.498 42.4377 136.362 42.4028 136.225 42.4028C136.087 42.4028 135.952 42.4377 135.832 42.5041C135.708 42.5753 135.606 42.6781 135.536 42.8017C135.459 42.9438 135.42 43.1033 135.424 43.2644C135.421 43.4279 135.459 43.5896 135.536 43.7347C135.607 43.8625 135.712 43.9689 135.84 44.0426C135.958 44.1113 136.093 44.1472 136.23 44.1468C136.372 44.1477 136.511 44.1103 136.632 44.0388C136.754 43.967 136.853 43.8638 136.918 43.7406C136.992 43.596 137.03 43.4365 137.03 43.2748C137.03 43.1133 136.992 42.9538 136.918 42.8092L136.912 42.8017Z" fill="#FAFAFA"/>
<path d="M138.315 41.5384C138.251 41.4728 138.215 41.3853 138.215 41.2943C138.215 41.2034 138.251 41.1161 138.315 41.0503C138.348 41.0183 138.387 40.9929 138.43 40.976C138.473 40.9592 138.519 40.9511 138.565 40.9523C138.611 40.9513 138.656 40.9595 138.697 40.9764C138.739 40.9935 138.777 41.0186 138.808 41.0503C138.874 41.1155 138.91 41.2032 138.91 41.2943C138.91 41.3857 138.874 41.4733 138.808 41.5384C138.777 41.5702 138.739 41.5954 138.697 41.6122C138.656 41.6291 138.611 41.6374 138.565 41.6366C138.519 41.6378 138.473 41.6297 138.43 41.6128C138.387 41.5959 138.348 41.5706 138.315 41.5384ZM138.833 41.9848V44.5707H138.286V41.9802L138.833 41.9848Z" fill="#FAFAFA"/>
<path d="M141.953 43.4727H139.935C139.939 43.5665 139.961 43.6588 140.002 43.7442C140.042 43.8295 140.099 43.9063 140.169 43.97C140.24 44.0339 140.322 44.0832 140.413 44.1156C140.503 44.1478 140.598 44.1626 140.694 44.1586C140.823 44.167 140.952 44.1369 141.063 44.0724C141.174 44.0078 141.263 43.9119 141.317 43.7969H141.906C141.828 44.032 141.676 44.2367 141.472 44.3817C141.245 44.5388 140.972 44.6188 140.694 44.6094C140.457 44.6129 140.223 44.5555 140.016 44.4427C139.817 44.333 139.654 44.1699 139.546 43.9725C139.429 43.757 139.371 43.5159 139.376 43.2718C139.371 43.0278 139.428 42.7862 139.542 42.5694C139.644 42.3757 139.801 42.2149 139.994 42.1067C140.205 41.9939 140.442 41.9369 140.682 41.9417C140.914 41.9375 141.144 41.9929 141.347 42.1023C141.539 42.2059 141.697 42.3607 141.803 42.5487C141.914 42.753 141.97 42.9821 141.965 43.2137C141.968 43.3002 141.964 43.3867 141.953 43.4727ZM141.402 43.0412C141.404 42.9514 141.385 42.8624 141.348 42.7803C141.311 42.6982 141.255 42.6253 141.186 42.5666C141.04 42.4461 140.854 42.3824 140.664 42.3879C140.485 42.3845 140.312 42.4478 140.18 42.565C140.042 42.6888 139.956 42.8586 139.94 43.0412H141.402Z" fill="#FAFAFA"/>
<path d="M142.908 44.4998C142.755 44.4343 142.62 44.3321 142.518 44.2022C142.424 44.0792 142.371 43.9305 142.366 43.7767H142.931C142.936 43.8312 142.953 43.8839 142.981 43.9313C143.009 43.9789 143.047 44.0199 143.092 44.052C143.198 44.1278 143.327 44.1665 143.458 44.1621C143.583 44.169 143.707 44.1389 143.815 44.0758C143.854 44.0524 143.886 44.0196 143.908 43.9804C143.931 43.9413 143.942 43.8973 143.942 43.8526C143.944 43.8068 143.931 43.7617 143.906 43.7231C143.881 43.6848 143.844 43.6546 143.801 43.6368C143.657 43.5712 143.507 43.519 143.353 43.4806C143.189 43.4409 143.027 43.3912 142.869 43.3318C142.744 43.2819 142.633 43.2034 142.545 43.1027C142.45 42.9874 142.402 42.8418 142.409 42.6934C142.408 42.5578 142.452 42.4256 142.533 42.3157C142.624 42.1952 142.748 42.102 142.89 42.0463C143.059 41.9769 143.241 41.9429 143.425 41.9466C143.686 41.9343 143.943 42.0133 144.15 42.1699C144.242 42.2441 144.315 42.3372 144.367 42.4421C144.418 42.5473 144.445 42.662 144.447 42.7782H143.9C143.896 42.7243 143.88 42.6716 143.854 42.624C143.828 42.5762 143.792 42.5346 143.748 42.5016C143.647 42.4283 143.524 42.3915 143.399 42.3974C143.283 42.3901 143.167 42.4181 143.068 42.4778C143.032 42.5004 143.002 42.5317 142.982 42.5687C142.962 42.6056 142.952 42.647 142.952 42.689C142.954 42.7199 142.962 42.75 142.975 42.7781C142.989 42.8059 143.008 42.8308 143.031 42.8512C143.085 42.8999 143.149 42.9375 143.218 42.9613C143.291 42.9881 143.4 43.0208 143.543 43.0626C143.704 43.1004 143.862 43.1503 144.015 43.2113C144.138 43.2629 144.247 43.3406 144.334 43.439C144.428 43.5518 144.477 43.6938 144.474 43.8392C144.475 43.98 144.431 44.1178 144.349 44.2335C144.259 44.354 144.138 44.4482 143.997 44.5057C143.828 44.5744 143.646 44.6078 143.462 44.604C143.272 44.6082 143.083 44.5727 142.908 44.4998Z" fill="#FAFAFA"/>
<path d="M48.1736 13.9462L34.5963 4.53398C34.0612 4.16076 33.4077 3.98675 32.7533 4.04321C32.0991 4.09965 31.4868 4.38287 31.0265 4.84196L26.819 9.01842C26.8151 9.02233 26.8104 9.02542 26.8051 9.02745C26.8 9.02951 26.7944 9.03049 26.7887 9.03031C26.7828 9.03031 26.7768 9.02912 26.7713 9.02684C26.7658 9.02454 26.7609 9.02116 26.7568 9.01692L22.7833 4.88661C22.3336 4.41524 21.7266 4.11723 21.072 4.04653C20.4174 3.97585 19.7587 4.13716 19.2151 4.50125L5.17467 13.8376C4.8003 14.086 4.4938 14.4206 4.28204 14.812C4.07027 15.2035 3.95969 15.6398 3.95996 16.0828V21.1088C3.96082 21.5485 4.07072 21.9814 4.2802 22.3702C4.4897 22.7589 4.79249 23.092 5.16251 23.3407L19.2044 32.7827C19.7481 33.1518 20.409 33.3168 21.0665 33.2481C21.7242 33.1792 22.3344 32.8809 22.7863 32.4078L26.7826 28.2522C26.7867 28.2479 26.7916 28.2445 26.7971 28.2422C26.8026 28.2399 26.8086 28.2387 26.8145 28.2387C26.8206 28.2385 26.8264 28.2397 26.8319 28.242C26.8376 28.2443 26.8425 28.2478 26.8464 28.2522L31.0326 32.436C31.4928 32.9008 32.1083 33.188 32.7668 33.2452C33.4251 33.3022 34.0827 33.1255 34.619 32.747L48.181 23.2246C48.5406 22.9742 48.8339 22.6434 49.0366 22.2595C49.2396 21.8758 49.3459 21.4503 49.3473 21.018V16.1617C49.3465 15.7274 49.2394 15.2996 49.0353 14.9141C48.8309 14.5287 48.5355 14.1968 48.1736 13.9462ZM23.2463 26.9531L21.6779 28.5898C21.3983 28.8828 21.0207 29.0676 20.6139 29.1103C20.2068 29.1533 19.7978 29.0514 19.4611 28.8235L8.1856 21.2352C7.95608 21.0814 7.76837 20.8749 7.6387 20.6338C7.50905 20.3926 7.4414 20.1242 7.4416 19.8516V17.3371C7.44248 17.0623 7.51216 16.7919 7.64452 16.5496C7.77689 16.3073 7.96789 16.1005 8.20079 15.9474L19.4656 8.46344C19.8021 8.23802 20.2099 8.13811 20.6152 8.18177C21.0204 8.22544 21.3963 8.40979 21.6748 8.70149L23.2144 10.3025C23.5206 10.6181 23.689 11.0383 23.6839 11.4736C23.6788 11.909 23.5005 12.3253 23.1871 12.6339L19.1042 16.6854C18.5984 17.1948 18.3153 17.8776 18.3153 18.5884C18.3153 19.2992 18.5984 19.982 19.1042 20.4914L23.2313 24.6261C23.5412 24.9363 23.7161 25.3525 23.7189 25.7866C23.7218 26.2208 23.5523 26.639 23.2463 26.9531ZM26.766 23.2946L22.0666 18.5988L26.7234 13.9626L31.2301 18.6479L26.766 23.2946ZM45.8626 19.7965C45.862 20.0634 45.7967 20.3262 45.6722 20.5633C45.5476 20.8007 45.3672 21.0054 45.1458 21.161L34.288 28.7863C33.956 29.0219 33.5485 29.1322 33.1403 29.0973C32.732 29.0624 32.3502 28.8843 32.0651 28.5958L30.3553 26.8862C30.0445 26.5769 29.8685 26.1611 29.8646 25.727C29.8607 25.2928 30.029 24.874 30.3342 24.5591L34.2303 20.5092C34.713 20.0054 34.9819 19.3405 34.9819 18.6494C34.9819 17.9584 34.713 17.2933 34.2303 16.7896L30.3113 12.7128C30.0054 12.3972 29.8368 11.977 29.8421 11.5416C29.8472 11.1062 30.0253 10.69 30.3387 10.3813L32.0575 8.67473C32.3418 8.38986 32.7207 8.21383 33.1256 8.17838C33.5307 8.14292 33.9354 8.25034 34.2667 8.4813L45.1382 16.0188C45.3621 16.1738 45.5447 16.3791 45.6708 16.6176C45.7967 16.856 45.8626 17.1206 45.8626 17.3892V19.7965Z" fill="#00E38C"/>
</svg>
